<svg xmlns="http://www.w3.org/2000/svg" viewBox="0 0 1000 360" role="img" aria-label="Arkflight Technology">
  <defs>
    <linearGradient id="bg" x1="0" y1="0" x2="1" y2="1"><stop offset="0" stop-color="#070913"/><stop offset="0.45" stop-color="#12183b"/><stop offset="1" stop-color="#060712"/></linearGradient>
    <radialGradient id="neb" cx="76%" cy="16%" r="70%"><stop offset="0" stop-color="#6f4bd1" stop-opacity="0.9"/><stop offset="0.34" stop-color="#1a2554" stop-opacity="0.65"/><stop offset="1" stop-color="#000" stop-opacity="0"/></radialGradient>
    <linearGradient id="gold" x1="0" y1="0" x2="1" y2="1"><stop offset="0" stop-color="#fff0b5"/><stop offset="0.45" stop-color="#d7a94b"/><stop offset="1" stop-color="#5d3e16"/></linearGradient>
  </defs>
  <rect width="1000" height="360" fill="url(#bg)"/>
  <rect width="1000" height="360" fill="url(#neb)"/>
  <g fill="#ffffff" opacity="0.6"><circle cx="80" cy="70" r="1.5"/><circle cx="145" cy="210" r="1"/><circle cx="880" cy="74" r="1.5"/><circle cx="750" cy="300" r="1"/><circle cx="420" cy="40" r="1.2"/></g>
  <circle cx="190" cy="180" r="84" fill="none" stroke="#b98a3a" stroke-width="5"/>
  <circle cx="190" cy="180" r="48" fill="none" stroke="#d7a94b" stroke-width="3" opacity="0.8"/>
  <path d="M190 90 L205 180 L190 270 L175 180 Z" fill="#d7a94b" opacity="0.85"/>
  <path d="M100 180 L190 165 L280 180 L190 195 Z" fill="#ffe7a3" opacity="0.8"/>
  <path d="M760 105 C835 55 930 90 950 190 C870 165 800 170 735 205 Z" fill="#d7c093" stroke="#7d5422" stroke-width="5"/>
  <rect x="32" y="28" width="936" height="304" rx="26" fill="none" stroke="url(#gold)" stroke-width="7"/>
  <rect x="48" y="44" width="904" height="272" rx="18" fill="none" stroke="#111018" stroke-width="4" opacity="0.86"/>
  <path d="M185 106 H815 L866 180 L815 254 H185 L134 180 Z" fill="#0c1424" opacity="0.92" stroke="url(#gold)" stroke-width="6"/>
  <path d="M215 130 H785 L820 180 L785 230 H215 L180 180 Z" fill="#151c2f" stroke="#60431a" stroke-width="2" opacity="0.96"/>
  <circle cx="500" cy="66" r="17" fill="#55d7ff"/>
  <path d="M410 66 H468 M532 66 H590 M500 35 V10 M500 97 V122" stroke="url(#gold)" stroke-width="4" opacity="0.82"/>
  <text x="500" y="198" text-anchor="middle" font-family="Cinzel, Georgia, serif" font-size="50" font-weight="700" fill="#ffe7a3" stroke="#533714" stroke-width="2" paint-order="stroke" letter-spacing="1.5">Arkflight Technology</text>
  <text x="500" y="275" text-anchor="middle" font-family="Cinzel, Georgia, serif" font-size="13" fill="#d7a94b" letter-spacing="5" opacity="0.85">ARK COMPASS</text>
</svg>
